<?xml version="1.0" encoding="utf-8"?>
<!-- Generator: Adobe Illustrator 22.0.1, SVG Export Plug-In . SVG Version: 6.00 Build 0)  -->
<svg version="1.1" id="Laag_1" xmlns="http://www.w3.org/2000/svg" xmlns:xlink="http://www.w3.org/1999/xlink" x="0px" y="0px"
	 viewBox="0 0 36 36" style="enable-background:new 0 0 36 36;" xml:space="preserve">
<style type="text/css">
	.st0{fill:#FCCE04;}
	.st1{fill:#D41735;}
</style>
<circle class="st0" cx="18" cy="18" r="17.5"/>
<g>
	<path class="st1" d="M8.5,16.4l-1,1.2c0,0,5.1,0,5.4,0c0.3,0,0.3,0.1,0.1,0.3c-0.1,0.2-0.4,0.5-0.5,0.6c-0.1,0.1-0.2,0.2,0.2,0.2
		c0.4,0,2.2,0,2.2,0s0.4-0.4,0.7-0.8c0.4-0.5,0-1.5-1.4-1.5C12.9,16.4,8.5,16.4,8.5,16.4L8.5,16.4L8.5,16.4z"/>
	<path class="st1" d="M7.1,20.4L9,18c0,0,2.2,0,2.5,0c0.3,0,0.3,0.1,0.1,0.3c-0.1,0.2-0.4,0.5-0.5,0.6c-0.1,0.1-0.2,0.2,0.2,0.2
		c0.4,0,3.3,0,3.3,0c-0.3,0.3-1.2,1.3-2.8,1.3C10.6,20.4,7.1,20.4,7.1,20.4L7.1,20.4L7.1,20.4z"/>
	<polygon class="st1" points="18.5,19.1 17.4,20.4 14.5,20.4 15.6,19.1 18.5,19.1 18.5,19.1 	"/>
	<polygon class="st1" points="22.8,18.8 15.9,18.8 17.8,16.4 20.6,16.4 19.5,17.8 20.8,17.8 21.9,16.4 24.7,16.4 22.8,18.8 
		22.8,18.8 	"/>
	<polygon class="st1" points="22.6,19.1 21.5,20.4 18.6,20.4 19.7,19.1 22.6,19.1 22.6,19.1 	"/>
	<polygon class="st1" points="3,19.6 7.2,19.6 7,19.9 3,19.9 3,19.6 3,19.6 	"/>
	<polygon class="st1" points="3,19.1 7.6,19.1 7.4,19.4 3,19.4 3,19.1 3,19.1 	"/>
	<polygon class="st1" points="3,20.1 6.8,20.1 6.5,20.4 3,20.4 3,20.1 3,20.1 	"/>
	<polygon class="st1" points="34,19.9 29.8,19.9 30.1,19.6 34,19.6 34,19.9 34,19.9 	"/>
	<polygon class="st1" points="34,20.4 29.4,20.4 29.6,20.1 34,20.1 34,20.4 34,20.4 	"/>
	<polygon class="st1" points="30.5,19.1 34,19.1 34,19.4 30.2,19.4 30.5,19.1 30.5,19.1 	"/>
	<polygon class="st1" points="28.7,16.4 26.8,18.8 23.7,18.8 25.6,16.4 28.7,16.4 28.7,16.4 	"/>
	<path class="st1" d="M23.5,19.1c0,0-0.2,0.3-0.3,0.4c-0.4,0.4,0,1,1.1,1c1.3,0,4.6,0,4.6,0l1.1-1.3H23.5L23.5,19.1L23.5,19.1z"/>
</g>
</svg>
